<?xml version="1.0" encoding="utf-8"?>
<!-- Generator: Adobe Illustrator 27.0.0, SVG Export Plug-In . SVG Version: 6.00 Build 0)  -->
<svg version="1.1" id="Layer_2_00000090254141954079525250000015132579443882472360_"
	 xmlns="http://www.w3.org/2000/svg" xmlns:xlink="http://www.w3.org/1999/xlink" x="0px" y="0px" viewBox="0 0 1600 1200"
	 style="enable-background:new 0 0 1600 1200;" xml:space="preserve">
<style type="text/css">
	.st0{fill:#FFFFFF;}
</style>
<g id="_레이어_1">
	<g>
		<g>
			<path class="st0" d="M284,1006.2c-30.3-0.4-52-22.2-52-54.7s21.7-54.7,52-54.7c15.3,0,29.4,7.4,39,18.4l24.1-19.7
				c-15.2-18.4-38.1-30.1-62.9-30.1c-47.5,0-84.2,34.5-84.2,86.1s36.7,86.1,84.2,86.1c24.9,0,47.8-11.7,62.9-30.1L323,987.8
				C313.3,998.8,299.2,1006.3,284,1006.2z"/>
			<path class="st0" d="M788.9,868.5l-43.3,124.4l-43.3-124.4h-33.4l58,165.8h37.5l58-165.8H788.9z"/>
			<path class="st0" d="M568.7,1005.8v-41.9h68.7v-28.5h-68.7V897h74.6v-28.5H537.9v165.8h106.5v-28.5
				C644.5,1005.8,568.7,1005.8,568.7,1005.8z"/>
			<path class="st0" d="M1215.2,939c0,0-17.1-4-22.7-5.5c-13.8-3.7-17.7-10.5-17.7-19.5c0-10.8,10.1-20.7,25.5-20.7
				c20.7,0,28,14,29.6,23l28.3-9.7c-4-18.2-19.3-41.4-58.1-41.4c-30.8,0-56.8,22.1-56.8,51c0,24.6,16.4,39.2,42.7,46.6
				c5.7,1.6,22.7,5.7,22.7,5.7c12.6,2.5,19.8,11,19.8,20.4c0,11.5-9.5,20-26.4,20c-23,0-34.2-14.4-35.7-30.5l-29.1,9.9
				c3.4,22.7,22.6,48.9,64.5,48.9c37.9,0,58.8-25.3,58.8-50.3C1260.7,964,1244.9,944.7,1215.2,939L1215.2,939z"/>
			<path class="st0" d="M465,972c18.2-7.7,33.8-26.2,33.8-50c0-29-20.1-53.7-55-53.7h-64.9v165.9h30.6v-57.5h23.5l35.1,57.5h34.3
				L465,972L465,972z M409.6,946.9v-48.6h33c12.4,0,23.2,10.4,23.2,23.8c0,13.4-8.3,24.9-23.4,24.9L409.6,946.9L409.6,946.9z"/>
			<path class="st0" d="M877.4,1005.8V964h68.7v-28.5h-68.7v-38.4H952v-28.5H846.6v165.7h106.5v-28.5H877.4z"/>
			<path class="st0" d="M1324.3,1005.9V964h68.7v-28.5h-68.7v-38.4h74.6v-28.5h-105.4v165.8H1400v-28.5H1324.3L1324.3,1005.9z"/>
			<path class="st0" d="M1079.1,972c18.2-7.7,33.8-26.2,33.8-50c0-29-20.1-53.7-55-53.7H993v165.9h30.6v-57.5h23.5l35.1,57.5h34.3
				L1079.1,972L1079.1,972z M1023.7,946.9v-48.6h33c12.4,0,23.2,10.4,23.2,23.8c0,13.4-8.3,24.9-23.4,24.9L1023.7,946.9
				L1023.7,946.9z"/>
		</g>
		<g>
			<path class="st0" d="M828.1,417.2l-172.6-99.7c-52.7-30.4-118.7,7.6-118.7,68.5v199.3c0,60.9,65.9,99,118.7,68.5l172.6-99.7
				C880.8,523.7,880.8,447.5,828.1,417.2L828.1,417.2z"/>
			<path class="st0" d="M1016.9,506.8l-28.8-16.6c-31.9-18.4-71.5-18.4-103.4,0l-136,78.5V313l136,78.5
				c15.9,9.2,33.8,13.8,51.7,13.8c17.9,0,35.8-4.6,51.7-13.8l28.8-16.6c16.9-9.7,26.9-27.2,26.9-46.7s-10.1-37-26.9-46.7L827.2,172
				c-22.1-12.7-48.3-12.7-70.4,0c-22.1,12.7-35.2,35.5-35.2,61v33L693,249.6c-22.1-12.7-48.4-12.7-70.5,0
				c-22,12.7-35.2,35.5-35.2,60.9v260.8c0,25.5,13.1,48.3,35.2,61c11,6.4,23.1,9.6,35.2,9.6s24.2-3.2,35.2-9.6l28.5-16.5v33
				c0,25.5,13.1,48.3,35.2,61c11,6.3,23.1,9.6,35.2,9.6s24.2-3.2,35.2-9.6l189.8-109.6c16.9-9.7,26.9-27.2,26.9-46.7
				C1043.8,534,1033.7,516.5,1016.9,506.8L1016.9,506.8z M748.8,233c0-15.6,8.1-29.6,21.6-37.4c13.6-7.8,29.7-7.8,43.2,0
				l189.8,109.6c8.4,4.8,13.4,13.5,13.4,23.1c0,9.7-5,18.3-13.4,23.1L974.6,368c-23.5,13.6-52.7,13.6-76.2,0l-149.6-86.4l0,0
				L748.8,233L748.8,233z M679.4,608.7c-13.5,7.8-29.7,7.8-43.2,0c-13.6-7.8-21.6-21.8-21.6-37.4V310.5c0-15.6,8.1-29.6,21.6-37.4
				c6.8-3.9,14.2-5.9,21.6-5.9s14.8,2,21.6,5.8l42.1,24.3l0,0v287l0,0L679.4,608.7L679.4,608.7z M1003.4,576.5L813.6,686.1
				c-13.5,7.8-29.7,7.8-43.2,0c-13.5-7.8-21.6-21.8-21.6-37.4V600l149.6-86.4c23.5-13.6,52.7-13.6,76.2,0l28.8,16.6
				c8.4,4.8,13.4,13.5,13.4,23.1C1016.8,563.1,1011.8,571.7,1003.4,576.5L1003.4,576.5z"/>
		</g>
	</g>
</g>
</svg>
