<?xml version="1.0" encoding="utf-8"?>
<!-- Generator: Adobe Illustrator 27.0.0, SVG Export Plug-In . SVG Version: 6.00 Build 0)  -->
<svg version="1.1" id="Layer_1" xmlns="http://www.w3.org/2000/svg" xmlns:xlink="http://www.w3.org/1999/xlink" x="0px" y="0px"
	 viewBox="0 0 1600 1200" style="enable-background:new 0 0 1600 1200;" xml:space="preserve">
<style type="text/css">
	.st0{fill:#FFFFFF;}
</style>
<rect x="1367.6" y="445.5" class="st0" width="32.4" height="171"/>
<rect x="1297.7" y="501.1" class="st0" width="32.4" height="70.4"/>
<rect x="1224.5" y="402.9" class="st0" width="32.4" height="143"/>
<g>
	<path class="st0" d="M228.3,771.5C210,754.8,200,730,200,701.8c0.3-60.7,45.7-100,115.7-100c24.3,0,43.2,4.1,54,8.2
		c-1.2,4.2-6.9,25.2-8.3,30.1c-13-5.1-27.3-7.5-46-7.5c-44.5,0-72.1,25.6-72.1,66.8s27,67.7,68.7,67.7c10.2,0,19.6-1.1,24-2.9
		l1.9-0.8v-46.7h-32.1v-28.7h71.3v98.6c-16.5,5.1-41.9,10.4-66.4,10.4C274.3,797.1,247.3,788.7,228.3,771.5"/>
	<path class="st0" d="M484.3,769c23.9,0,37.6-21.3,37.6-50.4c0-26.6-13.2-49.5-37.6-49.5c-24.3,0-38,22.4-38,50.1
		c0,27.7,14.2,49.7,37.8,49.7H484.3z M482.7,795.6c-46.1,0-73.4-33.2-73.4-75.4c0-44.4,30.1-77.6,76-77.6s74.2,34.1,74.2,75
		c0,48.8-30.8,78.1-76.5,78.1H482.7z"/>
</g>
<polygon class="st0" points="594.3,647.3 629.5,647.3 629.5,767.4 700.8,767.4 700.8,795.6 594.3,795.6 "/>
<polygon class="st0" points="736.8,647.3 845.9,647.3 845.9,674.8 772,674.8 772,708.7 841.9,708.7 841.9,736 772,736 772,795.6 
	736.8,795.6 "/>
<polygon class="st0" points="870.8,777.5 945.2,675.7 945.2,675.1 877.5,675.1 877.5,647.3 990.8,647.3 990.8,666.7 918.1,767 
	918.1,767.9 992,767.9 992,795.6 870.8,795.6 "/>
<path class="st0" d="M1089.7,769c23.9,0,37.5-21.3,37.5-50.4c0-26.6-13.2-49.5-37.5-49.5c-24.3,0-38,22.4-38,50.1
	c0,27.7,14.1,49.7,37.8,49.7H1089.7L1089.7,769z M1088.1,795.6c-46.1,0-73.5-33.2-73.5-75.4c0-44.4,30.1-77.6,76-77.6
	c45.9,0,74.1,34.1,74.1,75c0,48.8-30.8,78.1-76.5,78.1H1088.1L1088.1,795.6z"/>
<polygon class="st0" points="1196.4,795.6 1196.4,647.3 1237.7,647.3 1297.2,752.5 1297.7,752.5 1297.7,599.6 1330.1,599.6 
	1330.1,795.6 1290.3,795.6 1228.2,686.1 1228.4,686.1 1228.3,795.6 "/>
</svg>
