<?xml version="1.0" encoding="utf-8"?>
<!-- Generator: Adobe Illustrator 28.0.0, SVG Export Plug-In . SVG Version: 6.00 Build 0)  -->
<svg version="1.1" id="Layer_2_00000090254141954079525250000015132579443882472360_"
	 xmlns="http://www.w3.org/2000/svg" xmlns:xlink="http://www.w3.org/1999/xlink" x="0px" y="0px" viewBox="0 0 1600 1200"
	 style="enable-background:new 0 0 1600 1200;" xml:space="preserve">
<style type="text/css">
	.st0{fill:#FFFFFF;filter:url(#Adobe_OpacityMaskFilter);}
	.st1{mask:url(#mask0_2447_6369_00000180330364404267745440000014405055354137729430_);}
	.st2{fill:#FFFFFF;}
	.st3{fill-rule:evenodd;clip-rule:evenodd;fill:#FFFFFF;}
</style>
<g>
	<defs>
		<filter id="Adobe_OpacityMaskFilter" filterUnits="userSpaceOnUse" x="102.8" y="444.5" width="1394.3" height="311.1">
			<feColorMatrix  type="matrix" values="1 0 0 0 0  0 1 0 0 0  0 0 1 0 0  0 0 0 1 0"/>
		</filter>
	</defs>
	
		<mask maskUnits="userSpaceOnUse" x="102.8" y="444.5" width="1394.3" height="311.1" id="mask0_2447_6369_00000180330364404267745440000014405055354137729430_">
		<path class="st0" d="M1496.8,444.5H102.9v311.1h1393.9V444.5z"/>
	</mask>
	<g class="st1">
		<path class="st2" d="M210.9,444.5h59.4c15.5,0.3,30.3,6.5,41.3,17.3c11.1,10.9,17.5,25.5,18.1,41v9.7c0,0.4-0.1,0.9-0.2,1.2
			c-0.2,0.4-0.4,0.8-0.7,1.1c-0.3,0.3-0.7,0.5-1.1,0.7c-0.4,0.2-0.8,0.2-1.2,0.2h-20.5c-2.9,0-5.6-1.1-7.6-3.2c-2-2-3.2-4.8-3.2-7.6
			c0-3.4-0.7-6.8-2-9.9c-1.3-3.1-3.2-6-5.6-8.4c-2.4-2.4-5.3-4.3-8.4-5.6c-3.1-1.3-6.5-2-9.9-2h-38.9c-1.4,0-2.8,0.3-4.1,0.8
			c-1.3,0.5-2.5,1.3-3.5,2.3c-1,1-1.8,2.2-2.3,3.5c-0.5,1.3-0.8,2.7-0.8,4.1V546c0,2.3-0.4,4.5-1.3,6.6c-0.9,2.1-2.1,4-3.8,5.6
			c-1.6,1.6-3.5,2.9-5.6,3.7c-2.1,0.9-4.4,1.3-6.6,1.3h-54c-2.9,0-5.6,1.1-7.6,3.1c-1,1-1.8,2.2-2.3,3.5c-0.5,1.3-0.8,2.7-0.8,4.1
			v37.8c0,6.9,2.7,13.5,7.6,18.3c4.9,4.9,11.5,7.6,18.3,7.6h38.9c2.3,0,4.6,0.4,6.7,1.3c2.1,0.9,4,2.2,5.7,3.8c2.9,3,4.7,6.9,5,11.1
			v41c0,3.4,0.7,6.8,2,9.9c1.3,3.2,3.2,6,5.6,8.4c2.4,2.4,5.3,4.3,8.4,5.6c3.2,1.3,6.5,2,9.9,2h38.9c1.4,0,2.8-0.3,4.1-0.8
			c1.3-0.5,2.5-1.3,3.5-2.3c1-1,1.8-2.2,2.3-3.5c0.5-1.3,0.8-2.7,0.8-4.1v-13c0-2.9,1.1-5.6,3.2-7.6c2-2,4.8-3.2,7.6-3.2h12.9
			c2.9,0,5.6,1.1,7.6,3.2c2,2,3.2,4.8,3.2,7.6v33.5c-0.1,1.3-0.2,2.7-0.5,4c-1.2,5.7-4.2,10.8-8.6,14.6c-4.4,3.8-10,6-15.8,6.2
			h-61.5c-15.5-0.6-30.2-7-41-18.1c-10.9-11.1-17.1-25.8-17.3-41.3v-23.7h-21.6c-15.9,0-31.1-6.2-42.4-17.3
			c-11.3-11.1-17.8-26.2-18.1-42.1v-58.4c0-1.7,0.2-3.4,0.5-5c1-5,3.5-9.7,7.1-13.3c3.6-3.6,8.2-6.1,13.3-7.1c1.7-0.3,3.4-0.5,5-0.5
			h56.2v-58.3c0-1.7,0.2-3.4,0.5-5c1-5,3.5-9.7,7.1-13.3c3.6-3.6,8.3-6.1,13.3-7.1C207.5,444.6,209.1,444.5,210.9,444.5"/>
		<path class="st2" d="M332.4,534.6c2.4,2.4,3.8,5.7,3.8,9.2v112.4c0,3.4-1.4,6.7-3.8,9.2c-2.4,2.4-5.7,3.8-9.2,3.8
			c-3.4,0-6.7-1.4-9.2-3.8c-2.4-2.4-3.8-5.7-3.8-9.2V543.8c0-2.6,0.8-5.1,2.2-7.2c1.4-2.1,3.4-3.8,5.8-4.8c2.4-1,5-1.2,7.5-0.7
			C328.2,531.6,330.6,532.8,332.4,534.6z"/>
		<path class="st2" d="M293.5,560.6c2.4,2.4,3.8,5.7,3.8,9.2v60.5c0,3.4-1.4,6.7-3.8,9.2c-2.4,2.4-5.7,3.8-9.2,3.8
			c-3.4,0-6.7-1.4-9.2-3.8c-2.4-2.4-3.8-5.7-3.8-9.2v-60.5c0-2.6,0.8-5.1,2.2-7.2c1.4-2.1,3.4-3.8,5.8-4.8c2.4-1,5-1.2,7.5-0.7
			C289.4,557.5,291.7,558.8,293.5,560.6z"/>
		<path class="st2" d="M375,638.8v-77.8c0-1.7-0.3-3.4-0.9-5.1c-0.6-1.6-1.6-3.1-2.8-4.3c-1.2-1.2-2.6-2.2-4.2-2.9
			c-1.6-0.7-3.3-1-5-1c-1.7,0-3.4,0.3-5,1c-1.6,0.7-3,1.7-4.2,2.9c-1.2,1.2-2.2,2.7-2.8,4.3c-0.6,1.6-0.9,3.3-0.9,5.1v77.8
			c0,1.7,0.3,3.4,0.9,5.1c0.6,1.6,1.6,3.1,2.8,4.3c1.2,1.2,2.6,2.2,4.2,2.9c1.6,0.7,3.3,1,5,1c1.7,0,3.4-0.3,5-1
			c1.6-0.7,3-1.7,4.2-2.9c1.2-1.2,2.2-2.7,2.8-4.3C374.8,642.3,375.1,640.6,375,638.8z"/>
		<path class="st2" d="M413.9,612.9V587c0-3.4-1.4-6.7-3.8-9.2c-2.4-2.4-5.7-3.8-9.2-3.8c-3.4,0-6.7,1.4-9.2,3.8s-3.8,5.7-3.8,9.2
			v25.9c0,3.4,1.4,6.7,3.8,9.2c2.4,2.4,5.7,3.8,9.2,3.8c3.4,0,6.7-1.4,9.2-3.8C412.6,619.7,413.9,616.4,413.9,612.9z"/>
		<path class="st2" d="M588,503.8c0.8-2.8,1.1-5.8,0.7-8.7c-0.4-2.9-1.4-5.7-3-8.1c-1.6-2.5-3.7-4.6-6.1-6.2
			c-2.5-1.6-5.2-2.6-8.1-3.1c-2.9-0.4-5.9-0.2-8.7,0.6c-2.8,0.8-5.4,2.2-7.6,4.1c-2.2,1.9-4,4.3-5.2,6.9c-1.2,2.7-1.9,5.6-1.9,8.5
			c0,2,0.3,4,0.8,5.9h-37.8c-5.1,0.1-9.9,2.2-13.5,5.8c-3.6,3.6-5.6,8.5-5.6,13.6c0,5.1,2,10,5.6,13.6c3.6,3.6,8.4,5.7,13.5,5.8h38
			c0.1,1.4,0.1,2.8,0.3,4.1c-1.6,8.7-6.3,16.5-13.1,22.1c-6.8,5.6-15.4,8.7-24.2,8.7c-5.4,0-10.6,2.2-14.4,6c-3.8,3.8-6,9-6,14.4
			c0,5.4,2.2,10.6,6,14.4c3.8,3.8,9,6,14.4,6c10.9,0,21.6-2.2,31.6-6.6c10-4.4,18.9-10.7,26.3-18.7c7.4,8,16.3,14.4,26.3,18.7
			c10,4.4,20.7,6.6,31.6,6.6c5.4,0,10.6-2.2,14.4-6c3.8-3.8,6-9,6-14.4c0-5.4-2.1-10.6-6-14.4c-3.8-3.8-9-6-14.4-6
			c-8.8,0-17.4-3.1-24.2-8.7c-6.8-5.6-11.4-13.5-13.1-22.1c0.1-1.4,0.2-2.8,0.3-4.1h37.9c2.6,0,5.2-0.4,7.6-1.4
			c2.4-1,4.6-2.4,6.4-4.2c1.8-1.8,3.3-4,4.3-6.4c1-2.4,1.5-4.9,1.5-7.5c0-2.6-0.5-5.2-1.5-7.5c-1-2.4-2.5-4.5-4.3-6.4
			c-1.8-1.8-4-3.2-6.4-4.2c-2.4-1-5-1.4-7.6-1.4H588z"/>
		<path class="st2" d="M1461.8,497.9v82.6h15.5c2.6,0,5.2,0.4,7.6,1.4c2.4,1,4.6,2.4,6.4,4.2c1.8,1.8,3.3,4,4.3,6.4
			c1,2.4,1.5,4.9,1.5,7.5c0,2.6-0.5,5.1-1.5,7.5c-1,2.4-2.5,4.5-4.3,6.4c-1.9,1.8-4,3.2-6.4,4.2c-2.4,1-5,1.4-7.6,1.4h-15.5v76.8
			c0,2.7-0.4,5.4-1.5,7.9c-1,2.5-2.5,4.8-4.4,6.8c-1.9,1.9-4.1,3.5-6.7,4.5c-2.5,1.1-5.2,1.6-7.9,1.6s-5.4-0.5-7.9-1.6
			c-2.5-1-4.8-2.6-6.7-4.5c-1.9-1.9-3.4-4.2-4.4-6.8c-1-2.5-1.5-5.2-1.4-7.9V497.9c0.1-5.3,2.3-10.4,6.1-14.2
			c3.8-3.7,8.9-5.8,14.3-5.8c5.4,0,10.5,2.1,14.3,5.8C1459.5,487.5,1461.6,492.6,1461.8,497.9"/>
		<path class="st2" d="M703.6,501.8c0,0.3,0,0.7,0,1v31.1h15.6c5.2,0,10.1,2,13.8,5.7c3.6,3.6,5.7,8.6,5.7,13.7
			c0,5.2-2,10.1-5.7,13.7c-3.7,3.6-8.6,5.7-13.8,5.7h-15.6v34c-0.3,5.2-2.5,10.2-6.3,13.8c-3.8,3.6-8.8,5.6-14.1,5.6
			c-5.2,0-10.3-2-14.1-5.6c-3.8-3.6-6-8.6-6.3-13.8v-104c0-0.3,0-0.6,0-1c0-2.7,0.4-5.4,1.4-7.9c1-2.5,2.5-4.8,4.4-6.8
			c1.9-1.9,4.2-3.5,6.7-4.5c2.5-1,5.2-1.6,7.9-1.6c2.7,0,5.4,0.5,7.9,1.6c2.5,1.1,4.8,2.6,6.7,4.5c1.9,1.9,3.4,4.2,4.4,6.8
			C703.2,496.4,703.7,499.1,703.6,501.8"/>
		<path class="st2" d="M518.9,638.8h166.2c5.2,0,10.1,2.1,13.8,5.7c3.6,3.7,5.7,8.6,5.7,13.8V702c0,5.4-2.1,10.6-6,14.4
			c-3.9,3.8-9,6-14.4,6c-5.4,0-10.6-2.2-14.4-6c-3.8-3.8-6-9-6-14.4v-24.3H518.9c-5.2,0-10.1-2-13.7-5.7c-3.6-3.6-5.7-8.6-5.7-13.7
			c0-5.2,2-10.1,5.7-13.7C508.8,640.9,513.7,638.8,518.9,638.8"/>
		<path class="st2" d="M961.2,497.9c0-5.4-2.1-10.6-6-14.4c-3.9-3.8-9-6-14.4-6c-5.4,0-10.6,2.2-14.4,6c-3.8,3.8-6,9-6,14.4v164.3
			c-19.8,12.7-43,19-66.4,18c-23.5-1-46.1-9.1-64.8-23.4c-2.1-1.7-4.5-3-7.2-3.7c-2.6-0.8-5.3-1-8-0.7c-2.7,0.3-5.3,1.2-7.7,2.5
			c-2.4,1.3-4.4,3.1-6.1,5.3c-1.6,2.1-2.9,4.6-3.6,7.2c-0.7,2.6-0.9,5.4-0.5,8c0.4,2.7,1.2,5.3,2.6,7.6c1.4,2.3,3.2,4.4,5.4,6
			c26.5,20.4,58.9,31.6,92.3,32.1c33.4,0.5,66.1-9.9,93.2-29.5l3-2.2c2.7-1.9,4.8-4.4,6.4-7.3c1.5-2.9,2.3-6.1,2.3-9.4v-78.7h15.6
			c2.6,0,5.1-0.5,7.5-1.5c2.4-1,4.5-2.4,6.3-4.2c1.8-1.8,3.2-3.9,4.2-6.3c1-2.4,1.5-4.9,1.5-7.4c0-2.6-0.5-5.1-1.5-7.4
			c-1-2.4-2.4-4.5-4.2-6.3c-1.8-1.8-3.9-3.2-6.3-4.2c-2.4-1-4.9-1.5-7.5-1.5h-15.6V497.9z"/>
		<path class="st2" d="M1321.8,483.3c-2.8,0-5.6,0.6-8.2,1.6c-2.6,1.1-4.9,2.6-6.9,4.6c-2,2-3.6,4.3-4.6,6.9
			c-1.1,2.6-1.6,5.4-1.6,8.2v26.9c0,51.6-18.2,101.5-51.4,140.9c-3.6,4.4-5.4,10-4.9,15.6c0.5,5.7,3.2,10.9,7.6,14.5
			c4.4,3.7,10,5.4,15.6,4.9c5.6-0.5,10.9-3.2,14.5-7.6c22.1-26.3,38.8-56.7,49.2-89.5c13.6,9,22.8,22.7,25,38.3
			c1.9,13.5,3.2,27.7,3.2,40.3c0,2.7,0.4,5.4,1.5,7.9c1,2.5,2.5,4.8,4.4,6.8c1.9,1.9,4.2,3.5,6.7,4.5c2.5,1.1,5.2,1.6,7.9,1.6
			c2.7,0,5.4-0.5,7.9-1.6c2.5-1.1,4.8-2.6,6.7-4.5c1.9-1.9,3.4-4.2,4.4-6.8c1-2.5,1.5-5.2,1.4-7.9c0-15.3-1.6-31.5-3.6-46
			c-4.8-33.8-27.1-60.3-56-74c1.8-12.5,2.7-25,2.7-37.6v-26.9c0-2.8-0.5-5.6-1.6-8.2c-1.1-2.6-2.6-5-4.6-6.9c-2-2-4.4-3.6-6.9-4.6
			C1327.4,483.9,1324.6,483.4,1321.8,483.3"/>
		<path class="st3" d="M847.5,497.9c0,2-0.3,4-0.8,5.9h41.7c5.1,0,9.9,2,13.6,5.6c3.6,3.5,5.7,8.4,5.8,13.4c0.1,5.1-1.8,10-5.2,13.7
			c-3.5,3.7-8.2,5.9-13.3,6.2c5.9,10.7,9,22.7,8.8,34.9c-0.1,12.2-3.5,24.1-9.6,34.6c-6.2,10.5-15,19.2-25.6,25.3
			c-10.6,6.1-22.5,9.2-34.7,9.2c-12.2,0-24.2-3.2-34.7-9.2c-10.6-6.1-19.4-14.8-25.6-25.3c-6.2-10.5-9.5-22.4-9.7-34.6
			c-0.1-12.2,2.9-24.2,8.8-34.9c-5.1-0.2-9.8-2.5-13.3-6.2c-3.5-3.7-5.3-8.6-5.2-13.7c0.1-5.1,2.2-9.9,5.8-13.4
			c3.6-3.5,8.5-5.5,13.6-5.6h39.7c-0.5-1.9-0.8-3.9-0.8-5.9c0-5.4,2.2-10.6,6-14.4c3.8-3.8,9-6,14.4-6c5.4,0,10.6,2.2,14.4,6
			C845.3,487.3,847.5,492.5,847.5,497.9 M857.2,575.7c0,5.8-1.7,11.4-4.9,16.2c-3.2,4.8-7.7,8.5-13.1,10.7
			c-5.3,2.2-11.2,2.8-16.8,1.7c-5.7-1.1-10.9-3.9-14.9-8c-4.1-4.1-6.9-9.3-8-14.9c-1.1-5.7-0.5-11.5,1.6-16.9
			c2.2-5.3,6-9.9,10.8-13.1c4.8-3.2,10.4-4.9,16.2-4.9c7.7,0,15.2,3.1,20.6,8.5C854.1,560.5,857.2,567.9,857.2,575.7z"/>
		<path class="st3" d="M1162.4,563c0,14.8-4.4,29.3-12.6,41.6c-8.2,12.3-19.9,21.9-33.6,27.6c-13.7,5.7-28.7,7.1-43.2,4.3
			c-14.5-2.9-27.9-10-38.3-20.5c-10.5-10.5-17.6-23.8-20.5-38.3c-2.9-14.5-1.4-29.6,4.2-43.2c5.7-13.7,15.3-25.4,27.6-33.6
			c12.3-8.2,26.8-12.6,41.6-12.6c19.8,0,38.9,7.9,52.9,21.9C1154.5,524.2,1162.4,543.2,1162.4,563z M1120.6,563
			c0,6.5-2,12.9-5.6,18.4c-3.6,5.4-8.8,9.7-14.8,12.2c-6,2.5-12.7,3.2-19.1,1.9c-6.4-1.3-12.3-4.4-16.9-9
			c-4.6-4.6-7.8-10.5-9.1-16.9c-1.2-6.4-0.6-13.1,1.9-19.1c2.5-6,6.7-11.2,12.2-14.8c5.4-3.6,11.8-5.6,18.4-5.6
			c4.3,0,8.6,0.9,12.6,2.5c4,1.7,7.6,4.1,10.7,7.2c3.1,3.1,5.5,6.7,7.2,10.7C1119.7,554.4,1120.6,558.7,1120.6,563z"/>
		<path class="st2" d="M1223.7,696.2V496.9c-0.2-5.3-2.5-10.2-6.3-13.8c-3.8-3.6-8.8-5.7-14.1-5.7c-5.2,0-10.3,2-14.1,5.7
			c-3.8,3.6-6,8.6-6.3,13.8h0V641c-13.4,12.8-29.8,23.3-45.6,28.8c-17.9,6.2-37.1,7.9-55.8,4.9c-18.7-3-36.4-10.6-51.5-22.2
			c-2.2-1.7-4.7-2.9-7.3-3.6c-2.7-0.7-5.4-0.8-8.1-0.4c-2.7,0.4-5.3,1.4-7.6,2.8c-2.3,1.4-4.4,3.3-6,5.6c-1.6,2.2-2.7,4.8-3.3,7.4
			c-0.6,2.7-0.6,5.4-0.1,8.1c0.5,2.7,1.6,5.3,3.1,7.5c1.6,2.3,3.5,4.2,5.8,5.7c25.2,19,55.6,29.8,87.1,31.1
			c31.5,1.3,62.7-7.1,89.4-24v3.4c0,5.4,2.1,10.6,6,14.4c3.9,3.8,9,6,14.4,6c5.4,0,10.6-2.2,14.4-6
			C1221.6,706.7,1223.7,701.5,1223.7,696.2"/>
	</g>
</g>
</svg>
