<?xml version="1.0" encoding="utf-8"?>
<!-- Generator: Adobe Illustrator 27.0.0, SVG Export Plug-In . SVG Version: 6.00 Build 0)  -->
<svg version="1.1" id="Layer_1" xmlns="http://www.w3.org/2000/svg" xmlns:xlink="http://www.w3.org/1999/xlink" x="0px" y="0px"
	 viewBox="0 0 1600 1200" style="enable-background:new 0 0 1600 1200;" xml:space="preserve">
<style type="text/css">
	.st0{fill:#FFFFFF;}
</style>
<path class="st0" d="M800,147L568.1,280.9v267.7L800,682.5l231.9-133.9V280.9L800,147z M817.9,198.7l160.2,92.5l-160.2,92.5V198.7z
	 M782.1,383.7l-160.2-92.5l160.2-92.5V383.7z M764.1,414.8L604,507.2V322.3L764.1,414.8L764.1,414.8z M782.1,445.8v184.9
	l-160.2-92.5L782.1,445.8L782.1,445.8z M817.9,445.8l160.2,92.5l-160.2,92.5V445.8L817.9,445.8z M835.9,414.7L996,322.3v184.9
	L835.9,414.7z"/>
<g>
	<g>
		<path class="st0" d="M449,845.2h-69.2v-98.1h-30.9v101c0,7.7,2.7,14.3,8.1,19.5c5.4,5.3,12,7.9,19.8,7.9h75.1
			c7.7,0,14.3-2.7,19.6-7.9c5.5-5.3,8.3-11.9,8.3-19.6v-101H449L449,845.2L449,845.2z"/>
		<path class="st0" d="M600.8,747.1h-103v128.5h30.8v-98.1h69.2v98.1h30.8v-101c0-7.6-2.8-14.1-8.3-19.3
			C615.1,749.9,608.5,747.1,600.8,747.1L600.8,747.1z"/>
		<rect x="775.1" y="747.1" class="st0" width="30.9" height="128.5"/>
		<path class="st0" d="M934,747.1H831v128.5h30.9v-98.1h69.2v98.1h30.9v-101c0-7.6-2.8-14.1-8.3-19.3
			C948.3,749.9,941.7,747.1,934,747.1L934,747.1z"/>
		<polygon class="st0" points="1041,747.1 1010.2,747.1 1010.2,875.6 1133.3,875.6 1133.3,845.2 1041,845.2 		"/>
		<path class="st0" d="M1240.2,845.7c8.2-11.5,14.6-24.9,19.1-39.8l1.9-6.2h-27.9l-1,3.5c-3,10.5-7.3,19.9-12.9,28
			c-8-6.7-15.6-14.4-21.7-22.2c11.4-8.1,25.3-19.1,25.3-36.6c0-17.5-12.4-29.8-31-29.8c-20.2,0-34.8,14.5-34.8,34.4
			c0,7.7,2.2,16.4,6.7,25.7c-10.9,7.6-22.4,18.6-22.4,36.5c0,22.7,17.8,38.5,43.4,38.5c13.9,0,26.3-4.1,37.1-12.2
			c9.5,5.9,19.1,10,28,12.1l4.3,1l7.7-24.6l-4.9-1.2C1252.1,851.7,1246.3,849.2,1240.2,845.7L1240.2,845.7z M1177.2,824.3
			c6.5,8.6,14.5,17.2,23.5,25.2c-4.5,2.6-9.1,3.9-13.4,3.9c-10.6,0-17.7-6.1-17.7-15.3C1169.5,832.7,1173.1,828.1,1177.2,824.3
			L1177.2,824.3z M1185.6,788.9c-1.7-4.4-2.6-8.5-2.6-12c0-6.9,3.7-11.5,9.1-11.5c1.6,0,5.9,0,5.9,7.2
			C1198.2,778.8,1193.4,783.6,1185.6,788.9L1185.6,788.9z"/>
		<path class="st0" d="M1391.7,755.3c-5.4-5.4-12-8.1-19.6-8.1h-95.2v128.5h30.8v-49.1h64.4c7.7,0,14.3-2.7,19.6-7.9
			c5.5-5.3,8.3-11.9,8.3-19.6v-24.5C1400,767,1397.2,760.5,1391.7,755.3L1391.7,755.3z M1369.1,777.5v18.7h-61.5v-18.7H1369.1z"/>
		<path class="st0" d="M303,796.2h-72.1v-18.7H327v-30.4h-99.1c-7.8,0-14.5,2.7-19.8,8.1c-5.4,5.3-8.1,11.8-8.1,19.3v24.5
			c0,7.7,2.7,14.3,8.1,19.5c5.4,5.3,12,7.9,19.8,7.9h72.1v18.7h-96.2v30.4H303c7.7,0,14.3-2.7,19.6-7.9c5.5-5.3,8.3-11.9,8.3-19.6
			v-24.5c0-7.6-2.8-14.1-8.3-19.3C317.3,798.9,310.7,796.2,303,796.2L303,796.2z"/>
		<path class="st0" d="M719.6,845.2h-78.4v30.4h81.3c7.7,0,14.2-2.7,19.6-7.9c5.5-5.3,8.3-11.9,8.3-19.6v-101h-30.8V845.2
			L719.6,845.2z"/>
	</g>
	<g>
		<path class="st0" d="M686.5,924.6h-103V1053h30.8v-49h72.1c7.7,0,14.3-2.7,19.6-7.9c5.5-5.3,8.3-11.9,8.3-19.6V952
			c0-7.6-2.8-14.1-8.3-19.3C700.8,927.3,694.2,924.6,686.5,924.6L686.5,924.6z M683.6,954.9v18.7h-69.2v-18.7H683.6L683.6,954.9z"/>
		<path class="st0" d="M835.4,924.6h-75c-7.8,0-14.5,2.7-19.8,8.1c-5.4,5.3-8.1,11.8-8.1,19.3v101h30.8v-37.4h69.2v37.4h30.9V952
			c0-7.6-2.8-14.1-8.3-19.3C849.7,927.3,843.1,924.6,835.4,924.6L835.4,924.6z M832.5,954.9v30.4h-69.2v-30.4L832.5,954.9
			L832.5,954.9z"/>
		<polygon class="st0" points="1124.3,924.6 1074.2,973.6 1061.1,973.6 1061.1,924.6 1030.3,924.6 1030.3,1053 1061.1,1053 
			1061.1,1004 1074.2,1004 1124.3,1053 1165.4,1053 1099.9,988.8 1165.4,924.6 		"/>
		<path class="st0" d="M537.6,973.6h-72.1v-18.7h96.2v-30.3h-99.1c-7.8,0-14.5,2.7-19.8,8.1c-5.4,5.3-8.1,11.8-8.1,19.3v24.5
			c0,7.7,2.7,14.2,8.1,19.5c5.4,5.3,12,7.9,19.8,7.9h72.1v18.7h-96.2v30.4h99.1c7.7,0,14.3-2.7,19.6-7.9c5.5-5.3,8.3-11.9,8.3-19.5
			v-24.5c0-7.6-2.8-14.1-8.3-19.3C551.9,976.4,545.3,973.6,537.6,973.6L537.6,973.6z"/>
		<path class="st0" d="M909.3,924.6c-7.8,0-14.5,2.7-19.8,8.1c-5.4,5.3-8.1,11.8-8.1,19.3v73.6c0,7.7,2.7,14.2,8.1,19.5
			c5.4,5.3,12,7.9,19.8,7.9h103v-30.4h-100v-67.7h100v-30.4L909.3,924.6L909.3,924.6z"/>
	</g>
</g>
</svg>
