<?xml version="1.0" encoding="utf-8"?>
<!-- Generator: Adobe Illustrator 27.0.0, SVG Export Plug-In . SVG Version: 6.00 Build 0)  -->
<svg version="1.1" id="Layer_1" xmlns="http://www.w3.org/2000/svg" xmlns:xlink="http://www.w3.org/1999/xlink" x="0px" y="0px"
	 viewBox="0 0 165 24" style="enable-background:new 0 0 165 24;" xml:space="preserve">
<style type="text/css">
	.st0{fill:#FFFFFF;}
</style>
<g>
	<path class="st0" d="M0,0.4h6.6v17.5h10.3v5.7H0V0.4z"/>
	<path class="st0" d="M37,0.4h6.6v13.8c0,1.4-0.2,2.7-0.6,3.9c-0.4,1.2-1,2.3-1.8,3.2c-0.8,0.9-1.7,1.6-2.6,1.9
		c-1.3,0.5-2.8,0.8-4.6,0.8c-1,0-2.2-0.1-3.4-0.2c-1.2-0.2-2.3-0.5-3.1-0.9c-0.8-0.5-1.6-1.1-2.3-2c-0.7-0.9-1.2-1.8-1.4-2.7
		c-0.4-1.5-0.6-2.8-0.6-3.9V0.4h6.6v14.2c0,1.3,0.3,2.3,1,3c0.6,0.7,1.5,1.1,2.7,1.1c1.1,0,2-0.4,2.7-1.1c0.6-0.7,1-1.7,1-3V0.4z"/>
	<path class="st0" d="M66.1,14.1l5.8,1.9c-0.4,1.8-1,3.2-1.8,4.4c-0.8,1.2-1.9,2.1-3.1,2.7S64.1,24,62.2,24c-2.3,0-4.2-0.4-5.7-1.1
		c-1.5-0.7-2.7-2-3.8-3.9c-1.1-1.8-1.6-4.2-1.6-7.1c0-3.8,0.9-6.8,2.8-8.9C55.8,1,58.4,0,61.9,0c2.7,0,4.8,0.6,6.3,1.8
		c1.5,1.2,2.7,3,3.4,5.4l-5.8,1.4c-0.2-0.7-0.4-1.2-0.6-1.6c-0.4-0.5-0.8-1-1.4-1.3c-0.5-0.3-1.1-0.4-1.8-0.4c-1.5,0-2.6,0.7-3.4,2
		c-0.6,1-0.9,2.5-0.9,4.6c0,2.6,0.4,4.3,1.1,5.3c0.7,1,1.7,1.4,3,1.4c1.3,0,2.2-0.4,2.9-1.2C65.3,16.7,65.8,15.6,66.1,14.1z"/>
	<path class="st0" d="M79.3,0.4h6.6v23.2h-6.6V0.4z"/>
	<path class="st0" d="M94.6,0.4h16.3v5h-9.7v4.1h8.3v4.7h-8.3v9.5h-6.6V0.4z"/>
	<path class="st0" d="M118.4,0.4h17.7v5H125V9h10.3v4.7H125v4.6h11.4v5.3h-18V0.4z"/>
	<path class="st0" d="M144,23.6V0.4h11c2,0,3.6,0.2,4.7,0.6c1.1,0.4,1.9,1.1,2.6,2.1s1,2.3,1,3.8c0,1.3-0.3,2.4-0.8,3.3
		c-0.5,0.9-1.2,1.7-2.1,2.3c-0.6,0.4-1.3,0.7-2.3,0.9c0.8,0.3,1.4,0.6,1.7,0.9c0.2,0.2,0.6,0.6,1.1,1.2c0.5,0.6,0.8,1.1,0.9,1.4
		l3.2,6.7h-7.5l-3.5-7.1c-0.4-0.9-0.8-1.5-1.2-1.8c-0.5-0.4-1-0.5-1.6-0.5h-0.6v9.4H144z M150.6,9.8h2.8c0.3,0,0.9-0.1,1.7-0.3
		c0.4-0.1,0.8-0.3,1.1-0.7c0.3-0.4,0.4-0.8,0.4-1.3c0-0.7-0.2-1.3-0.7-1.7c-0.4-0.4-1.3-0.6-2.5-0.6h-2.9V9.8z"/>
</g>
</svg>
